<svg width="450" height="56" viewBox="0 0 450 56" fill="none" xmlns="http://www.w3.org/2000/svg">
<g filter="url(#filter0_b_932_5452)">
<path fill-rule="evenodd" clip-rule="evenodd" d="M450 0H0V18C5.40274 18.0001 9.7825 22.4772 9.7825 28C9.7825 33.5228 5.40274 37.9999 0 38V56H450V38C444.597 38 440.217 33.5228 440.217 28C440.217 22.4772 444.597 18 450 18V0ZM30.8477 25C30.0192 25 29.3477 25.6716 29.3477 26.5C29.3477 27.3284 30.0192 28 30.8477 28H32.8288C33.6572 28 34.3288 27.3284 34.3288 26.5C34.3288 25.6716 33.6572 25 32.8288 25H30.8477ZM42.7345 25C41.9061 25 41.2345 25.6716 41.2345 26.5C41.2345 27.3284 41.9061 28 42.7345 28H46.6968C47.5252 28 48.1968 27.3284 48.1968 26.5C48.1968 25.6716 47.5252 25 46.6968 25H42.7345ZM56.6025 25C55.7741 25 55.1025 25.6716 55.1025 26.5C55.1025 27.3284 55.7741 28 56.6025 28H60.5648C61.3933 28 62.0648 27.3284 62.0648 26.5C62.0648 25.6716 61.3933 25 60.5648 25H56.6025ZM70.4706 25C69.6421 25 68.9706 25.6716 68.9706 26.5C68.9706 27.3284 69.6421 28 70.4706 28H74.4328C75.2613 28 75.9328 27.3284 75.9328 26.5C75.9328 25.6716 75.2613 25 74.4328 25H70.4706ZM84.3386 25C83.5101 25 82.8386 25.6716 82.8386 26.5C82.8386 27.3284 83.5101 28 84.3386 28H88.3009C89.1293 28 89.8009 27.3284 89.8009 26.5C89.8009 25.6716 89.1293 25 88.3009 25H84.3386ZM98.2066 25C97.3781 25 96.7066 25.6716 96.7066 26.5C96.7066 27.3284 97.3781 28 98.2066 28H102.169C102.997 28 103.669 27.3284 103.669 26.5C103.669 25.6716 102.997 25 102.169 25H98.2066ZM112.075 25C111.246 25 110.575 25.6716 110.575 26.5C110.575 27.3284 111.246 28 112.075 28H116.037C116.865 28 117.537 27.3284 117.537 26.5C117.537 25.6716 116.865 25 116.037 25H112.075ZM125.943 25C125.114 25 124.443 25.6716 124.443 26.5C124.443 27.3284 125.114 28 125.943 28H129.905C130.733 28 131.405 27.3284 131.405 26.5C131.405 25.6716 130.733 25 129.905 25H125.943ZM139.811 25C138.982 25 138.311 25.6716 138.311 26.5C138.311 27.3284 138.982 28 139.811 28H143.773C144.601 28 145.273 27.3284 145.273 26.5C145.273 25.6716 144.601 25 143.773 25H139.811ZM153.679 25C152.85 25 152.179 25.6716 152.179 26.5C152.179 27.3284 152.85 28 153.679 28H157.641C158.469 28 159.141 27.3284 159.141 26.5C159.141 25.6716 158.469 25 157.641 25H153.679ZM167.547 25C166.718 25 166.047 25.6716 166.047 26.5C166.047 27.3284 166.718 28 167.547 28H171.509C172.337 28 173.009 27.3284 173.009 26.5C173.009 25.6716 172.337 25 171.509 25H167.547ZM181.415 25C180.586 25 179.915 25.6716 179.915 26.5C179.915 27.3284 180.586 28 181.415 28H185.377C186.205 28 186.877 27.3284 186.877 26.5C186.877 25.6716 186.205 25 185.377 25H181.415ZM195.283 25C194.454 25 193.783 25.6716 193.783 26.5C193.783 27.3284 194.454 28 195.283 28H199.245C200.073 28 200.745 27.3284 200.745 26.5C200.745 25.6716 200.073 25 199.245 25H195.283ZM209.151 25C208.322 25 207.651 25.6716 207.651 26.5C207.651 27.3284 208.322 28 209.151 28H213.113C213.941 28 214.613 27.3284 214.613 26.5C214.613 25.6716 213.941 25 213.113 25H209.151ZM223.019 25C222.19 25 221.519 25.6716 221.519 26.5C221.519 27.3284 222.19 28 223.019 28H226.981C227.809 28 228.481 27.3284 228.481 26.5C228.481 25.6716 227.809 25 226.981 25H223.019ZM236.887 25C236.058 25 235.387 25.6716 235.387 26.5C235.387 27.3284 236.058 28 236.887 28H240.849C241.677 28 242.349 27.3284 242.349 26.5C242.349 25.6716 241.677 25 240.849 25H236.887ZM250.755 25C249.926 25 249.255 25.6716 249.255 26.5C249.255 27.3284 249.926 28 250.755 28H254.717C255.545 28 256.217 27.3284 256.217 26.5C256.217 25.6716 255.545 25 254.717 25H250.755ZM264.623 25C263.794 25 263.123 25.6716 263.123 26.5C263.123 27.3284 263.794 28 264.623 28H268.585C269.413 28 270.085 27.3284 270.085 26.5C270.085 25.6716 269.413 25 268.585 25H264.623ZM278.491 25C277.662 25 276.991 25.6716 276.991 26.5C276.991 27.3284 277.662 28 278.491 28H282.453C283.281 28 283.953 27.3284 283.953 26.5C283.953 25.6716 283.281 25 282.453 25H278.491ZM292.359 25C291.53 25 290.859 25.6716 290.859 26.5C290.859 27.3284 291.53 28 292.359 28H296.321C297.149 28 297.821 27.3284 297.821 26.5C297.821 25.6716 297.149 25 296.321 25H292.359ZM306.227 25C305.398 25 304.727 25.6716 304.727 26.5C304.727 27.3284 305.398 28 306.227 28H310.189C311.017 28 311.689 27.3284 311.689 26.5C311.689 25.6716 311.017 25 310.189 25H306.227ZM320.095 25C319.266 25 318.595 25.6716 318.595 26.5C318.595 27.3284 319.266 28 320.095 28H324.057C324.885 28 325.557 27.3284 325.557 26.5C325.557 25.6716 324.885 25 324.057 25H320.095ZM333.963 25C333.134 25 332.463 25.6716 332.463 26.5C332.463 27.3284 333.134 28 333.963 28H337.925C338.753 28 339.425 27.3284 339.425 26.5C339.425 25.6716 338.753 25 337.925 25H333.963ZM347.831 25C347.002 25 346.331 25.6716 346.331 26.5C346.331 27.3284 347.002 28 347.831 28H351.793C352.621 28 353.293 27.3284 353.293 26.5C353.293 25.6716 352.621 25 351.793 25H347.831ZM361.699 25C360.87 25 360.199 25.6716 360.199 26.5C360.199 27.3284 360.87 28 361.699 28H365.661C366.49 28 367.161 27.3284 367.161 26.5C367.161 25.6716 366.49 25 365.661 25H361.699ZM375.567 25C374.738 25 374.067 25.6716 374.067 26.5C374.067 27.3284 374.738 28 375.567 28H379.529C380.358 28 381.029 27.3284 381.029 26.5C381.029 25.6716 380.358 25 379.529 25H375.567ZM389.435 25C388.606 25 387.935 25.6716 387.935 26.5C387.935 27.3284 388.606 28 389.435 28H393.397C394.226 28 394.897 27.3284 394.897 26.5C394.897 25.6716 394.226 25 393.397 25H389.435ZM403.303 25C402.474 25 401.803 25.6716 401.803 26.5C401.803 27.3284 402.474 28 403.303 28H407.265C408.094 28 408.765 27.3284 408.765 26.5C408.765 25.6716 408.094 25 407.265 25H403.303ZM417.171 25C416.342 25 415.671 25.6716 415.671 26.5C415.671 27.3284 416.342 28 417.171 28H419.152C419.98 28 420.652 27.3284 420.652 26.5C420.652 25.6716 419.98 25 419.152 25H417.171Z" fill="#171B20"/>
</g>
<defs>
<filter id="filter0_b_932_5452" x="-24" y="-24" width="498" height="104" filterUnits="userSpaceOnUse" color-interpolation-filters="sRGB">
<feFlood flood-opacity="0" result="BackgroundImageFix"/>
<feGaussianBlur in="BackgroundImage" stdDeviation="12"/>
<feComposite in2="SourceAlpha" operator="in" result="effect1_backgroundBlur_932_5452"/>
<feBlend mode="normal" in="SourceGraphic" in2="effect1_backgroundBlur_932_5452" result="shape"/>
</filter>
</defs>
</svg>
