<svg width="20" height="20" viewBox="0 0 20 20" fill="none" xmlns="http://www.w3.org/2000/svg">
<path d="M18.5584 9.21875C18.3792 7.21816 17.5143 5.36086 16.0767 3.92332C14.6391 2.48574 12.7818 1.62078 10.7812 1.44164V0H9.21875V1.44164C7.21816 1.62078 5.36086 2.48574 3.92332 3.92332C2.48574 5.36086 1.62078 7.21816 1.44164 9.21875H0V10.7812H1.44164C1.62078 12.7818 2.48574 14.6391 3.92332 16.0767C5.36086 17.5143 7.21816 18.3792 9.21875 18.5584V20H10.7812V18.5584C12.7818 18.3792 14.6391 17.5143 16.0767 16.0767C17.5143 14.6391 18.3792 12.7818 18.5584 10.7812H20V9.21875H18.5584ZM16.9876 10.7812C16.6262 14.0354 14.0354 16.6262 10.7812 16.9876V15.4688H9.21875V16.9876C5.96465 16.6262 3.37379 14.0354 3.01238 10.7812H4.53125V9.21875H3.01238C3.37379 5.96465 5.96465 3.37379 9.21875 3.01238V4.53125H10.7812V3.01238C14.0354 3.37379 16.6262 5.96465 16.9876 9.21875H15.4688V10.7812H16.9876ZM10.7812 7.79063V6.09375H9.21875V7.79063C8.55398 8.02641 8.02641 8.55395 7.79063 9.21875H6.09375V10.7812H7.79063C8.02641 11.446 8.55395 11.9736 9.21875 12.2094V13.9062H10.7812V12.2094C11.446 11.9736 11.9736 11.4461 12.2094 10.7812H13.9062V9.21875H12.2094C11.9736 8.55398 11.446 8.02641 10.7812 7.79063ZM10 10.7812C9.56922 10.7812 9.21875 10.4308 9.21875 10C9.21875 9.56922 9.56922 9.21875 10 9.21875C10.4308 9.21875 10.7812 9.56922 10.7812 10C10.7812 10.4308 10.4308 10.7812 10 10.7812Z" fill="#E5E5E5" fill-opacity="0.78"/>
<path d="M18.5584 9.21875C18.3792 7.21816 17.5143 5.36086 16.0767 3.92332C14.6391 2.48574 12.7818 1.62078 10.7812 1.44164V0H9.21875V1.44164C7.21816 1.62078 5.36086 2.48574 3.92332 3.92332C2.48574 5.36086 1.62078 7.21816 1.44164 9.21875H0V10.7812H1.44164C1.62078 12.7818 2.48574 14.6391 3.92332 16.0767C5.36086 17.5143 7.21816 18.3792 9.21875 18.5584V20H10.7812V18.5584C12.7818 18.3792 14.6391 17.5143 16.0767 16.0767C17.5143 14.6391 18.3792 12.7818 18.5584 10.7812H20V9.21875H18.5584ZM16.9876 10.7812C16.6262 14.0354 14.0354 16.6262 10.7812 16.9876V15.4688H9.21875V16.9876C5.96465 16.6262 3.37379 14.0354 3.01238 10.7812H4.53125V9.21875H3.01238C3.37379 5.96465 5.96465 3.37379 9.21875 3.01238V4.53125H10.7812V3.01238C14.0354 3.37379 16.6262 5.96465 16.9876 9.21875H15.4688V10.7812H16.9876Z" fill="#20ADA3"/>
</svg>
