<svg width="330" height="24" viewBox="0 0 330 24" fill="none" xmlns="http://www.w3.org/2000/svg">
<path fill-rule="evenodd" clip-rule="evenodd" d="M197.495 10.9618C153.578 11.388 109.639 13.079 65.9129 16.1016C45.1243 17.539 20.9824 17.3593 0.820055 22.2596C-0.184586 22.5062 0.00674447 23.246 0.0284899 23.32C0.0719809 23.4715 0.25469 23.9752 1.05492 23.9999C1.1419 24.0034 1.75508 23.9329 1.98993 23.9083C7.94384 23.2742 13.876 22.5344 19.8343 21.9355C40.4055 19.8606 61.0376 18.2929 81.7001 16.919C109.125 15.0941 136.786 14.1218 164.285 13.3608C179.337 12.9452 194.75 13.4982 209.85 12.6386C215.396 12.614 220.941 12.6105 226.486 12.6246C249.666 12.6916 272.821 13.4032 295.963 14.379C303.404 14.6925 309.079 15.0307 316.364 15.2597C319.13 15.3478 323.518 15.4077 326.571 15.4464C327.019 15.4535 328.163 15.4605 328.637 15.464C328.685 15.471 328.733 15.471 328.785 15.471C328.968 15.471 329.055 15.4605 329.072 15.4605C330.107 15.3372 330.012 14.5445 329.985 14.4248C329.981 14.4001 329.825 13.7307 328.933 13.7061C328.72 13.699 327.193 13.6921 326.606 13.685C323.571 13.6463 319.2 13.5864 316.447 13.5018C309.175 13.2728 303.504 12.9346 296.076 12.6211C272.899 11.6453 249.71 10.9301 226.494 10.8632C223.659 10.8562 220.819 10.8526 217.983 10.8561C217.888 10.6553 217.675 10.4299 217.205 10.3312C216.766 10.2396 213.621 10.1586 212.408 10.0776C203.427 9.47872 203.692 9.5069 193.811 9.01722C178.846 8.2739 176.567 8.10472 161.001 7.79119C132.728 7.22048 104.442 7.26634 76.1637 7.3227C62.2031 7.35441 47.2553 8.11886 33.0816 6.6921C37.7525 6.24822 42.4409 5.92412 47.1205 5.55422C63.099 4.29304 79.0907 3.51092 95.1345 2.96136C133.62 1.64381 172.166 1.11894 210.638 2.9156C202.448 2.97901 194.263 3.12693 186.074 3.22205C152.738 3.61661 119.081 3.32072 85.8143 5.3675C85.2185 5.40625 84.7706 5.82897 84.8141 6.3116C84.8576 6.79776 85.3838 7.16063 85.9796 7.1254C119.202 5.07862 152.812 5.37804 186.104 4.98348C198.473 4.83904 210.838 4.57837 223.207 4.65587C227.451 4.68406 231.696 4.8109 235.941 4.85318C236.78 4.86374 238.942 4.99761 239.25 4.94125C239.933 4.81795 240.081 4.40927 240.124 4.20846C240.146 4.08869 240.216 3.39821 239.172 3.15161C232.048 1.46768 218.901 1.54518 211.977 1.21403C173.031 -0.653084 134.007 -0.131714 95.0432 1.19993C78.9602 1.75302 62.9294 2.53866 46.9074 3.80337C41.3101 4.24373 35.6998 4.62419 30.1242 5.20899C29.224 5.3041 27.2017 5.44152 26.2231 5.58596C25.8143 5.64585 25.5185 5.73034 25.3881 5.79023C24.8792 6.02273 24.7879 6.36094 24.7879 6.58992C24.7835 6.76606 24.8749 7.38608 25.9404 7.55518C42.1756 10.1304 59.8416 9.11936 76.1681 9.08413C104.428 9.02777 132.693 8.98191 160.949 9.55262C176.476 9.86615 178.746 10.0318 193.681 10.7751C195.155 10.8456 196.403 10.9089 197.495 10.9618Z" fill="#20ADA3"/>
</svg>
