<svg width="460" height="29" viewBox="0 0 460 29" fill="none" xmlns="http://www.w3.org/2000/svg">
<path fill-rule="evenodd" clip-rule="evenodd" d="M152.5 2.56171C101.773 1.96079 50.8399 4.15689 1.74077 13.3784C0.864761 13.5422 0.5011 13.8646 0.429426 13.9383C0.0100023 14.3754 -0.0352033 14.8397 0.0178883 15.2221C0.0497433 15.4543 0.264858 16.4349 1.44084 16.5359C2.25314 16.6042 8.0188 16.1262 10.2433 16.0033C20.7157 15.427 31.1668 14.6048 41.6126 13.6542C65.2968 11.5073 88.949 9.6499 112.67 7.95912C125.988 7.00856 139.312 6.22187 152.627 5.57724C184.66 5.96238 216.613 7.46472 247.969 9.0162C235.506 9.80559 224.054 10.6059 214.558 11.1249C198.546 11.999 182.563 13.0314 166.582 14.3917C158.372 15.0883 150.172 15.8449 141.977 16.7381C141.069 16.8392 139.001 16.9429 138 17.0659C137.576 17.115 137.268 17.1942 137.13 17.2489C136.264 17.593 136.155 18.2977 136.145 18.6528C136.139 18.8686 136.211 20.0459 137.671 20.2753C205.557 31.0428 276.381 18.5163 344.511 28.9833C345.31 29.1062 346.058 28.538 346.178 27.7131C346.297 26.891 345.745 26.1207 344.943 25.9978C280.777 16.1399 214.219 26.6806 149.97 18.9424C155.584 18.3824 161.201 17.8771 166.824 17.3991C182.775 16.0415 198.729 15.0118 214.715 14.1377C230.802 13.2609 252.548 11.5483 275.311 10.4693C294.846 11.5892 314.371 12.8457 333.908 13.911C342.151 14.3589 350.396 14.7304 358.636 15.1866C362.023 15.3723 370.738 16.1508 372.001 15.8613C372.984 15.6345 373.22 14.9107 373.278 14.5474C373.339 14.1541 373.302 13.6652 372.856 13.1981C372.718 13.0506 372.304 12.7447 371.455 12.4934C348.479 5.72203 310.859 5.82855 275.624 7.4647C268.046 7.02767 260.467 6.61248 252.885 6.23827C235.53 5.37786 217.983 4.5147 200.335 3.83456C250.069 2.56988 299.826 2.93318 349.597 3.84823C370.494 4.23337 426.821 6.55513 449.006 8.60647C448.735 8.89328 448.576 9.29207 448.594 9.72637C448.631 10.5567 449.319 11.2014 450.128 11.1631C454.705 10.9446 457.352 10.666 458.4 10.3792C459.053 10.2017 459.409 9.91758 459.573 9.73184C459.977 9.28388 460.051 8.80312 459.972 8.34696C459.921 8.06289 459.797 7.75151 459.51 7.4647C459.319 7.26804 458.851 6.96759 458.055 6.76273C449.335 4.53111 374.531 1.28882 349.65 0.829934C283.899 -0.377379 218.174 -0.623188 152.5 2.56171ZM353.669 11.8979C340.821 10.1033 325.759 9.47234 310.046 9.51331C318.05 9.99132 326.056 10.4584 334.065 10.8955C340.598 11.2533 347.133 11.5592 353.669 11.8979ZM91.9009 6.45954C75.0444 7.73787 58.2063 9.11999 41.3551 10.6496C39.4093 10.8244 37.4661 10.9965 35.5203 11.1659C54.1554 8.8168 72.9844 7.32268 91.9009 6.45954Z" fill="#12C1BC"/>
</svg>
